<svg version="1.1" viewBox="0 0 640 640" xmlns="http://www.w3.org/2000/svg" xmlns:xlink="http://www.w3.org/1999/xlink">
<defs>
<path id="b" d="m225.04 608.23h190.64v24.47h-190.64v-24.47z"/>
<path id="c" d="m621.21 360.93c0 149.99-135.54 271.77-302.49 271.77s-302.49-121.78-302.49-271.77 135.54-271.76 302.49-271.76 302.49 121.77 302.49 271.76z"/>
<path id="a" d="m-0.33 327.63c-0.14 137.99 88.2 260.54 219.16 304.02 8.32 3.15 17.62-1.04 20.77-9.36 0.75-1.97 1.1-4.06 1.04-6.16v-54.41c-88.99 19.64-107.85-42.82-107.85-42.82-5.89-19.33-18.5-35.92-35.55-46.76-29.08-19.64 2.16-19.64 2.16-19.64 20.59 2.81 38.72 15 49.11 33 18.17 32.97 59.62 44.97 92.6 26.81 0.17-0.1 0.34-0.19 0.51-0.29 1.27-16.15 8.23-31.33 19.64-42.82-71.11-8.06-145.75-35.56-145.75-158.14-0.44-31.79 11.38-62.53 33-85.84-9.76-27.6-8.63-57.87 3.14-84.67 0 0 26.91-8.64 88.01 32.81 52.46-14.38 107.83-14.38 160.29 0 61.09-41.45 88.01-32.81 88.01-32.81 11.79 26.79 12.91 57.08 3.14 84.67 21.68 23.35 33.51 54.18 33 86.04 0 122.97-74.84 149.88-146.15 157.15 15.38 15.61 23.32 37.07 21.8 58.93v87.81c-0.18 8.89 6.88 16.25 15.78 16.44 2.13 0.04 4.24-0.34 6.23-1.12 167.08-57.6 255.83-239.74 198.23-406.82-44.2-128.2-164.39-214.62-299.99-215.69-176.73-0.18-320.15 142.94-320.33 319.67z"/>
</defs>
<use fill="#ffffff" xlink:href="#b"/>
<use fill="#ffffff" xlink:href="#c"/>
<use fill="#181616" xlink:href="#a"/>
<use fill-opacity="0" stroke="#000000" stroke-opacity="0" xlink:href="#a"/>
</svg>
