<?xml version="1.0" encoding="utf-8"?>
<svg version="1.1" xmlns="http://www.w3.org/2000/svg" xmlns:xlink="http://www.w3.org/1999/xlink" x="0px" y="0px"
	 viewBox="0 0 400 400" style="enable-background:new 0 0 400 400;" xml:space="preserve">
<style type="text/css">
	.st0{fill:#FFFFFF;}
	.st1{fill-rule:evenodd;clip-rule:evenodd;fill:#0C7AB4;}
</style>
<rect x="88" y="78" class="st0" width="240.5" height="240.5"/>
<g id="svgg">
	<path id="path0" class="st1" d="M189.6,0.2C72.9,6.7-12.9,109.4,1.5,225.3c11.4,92,85.9,164.5,178.4,173.7
		c110.1,11,207.9-68.9,219.2-178.9c0.9-8.5,1.2-25.1,0.6-32.9c-2-28.3-8.7-52.9-21-77.2C343.1,39.3,268.3-4.2,189.6,0.2 M129.5,84.5
		c20.3,4.4,27.8,29.2,13.2,43.9c-16.3,16.5-44,4.9-44-18.3c0-13.5,9.5-24.3,22.9-26C123.2,83.9,128,84.2,129.5,84.5 M262.6,150.7
		c27.6,1.3,44.8,17.9,48,46.3c0.5,4.9,0.6,8.8,0.6,54.2l0,45.5h-21.8h-21.8l0-39.3c0-25.9-0.1-39.9-0.2-41.2
		c-1.6-17.1-9.5-25.8-23.7-25.8c-13.9,0-23.1,7.5-25.9,21.4c-1,5-1,2.7-1,45.6l-0.1,39.3h-20.9h-20.9v-70.9v-70.9h21h21l-0.1,9.6
		c-0.1,5.3,0,9.6,0,9.6c0.1,0,0.6-0.8,1.2-1.7c8.2-12.5,22.9-20.8,38.5-21.6c1.3-0.1,2.5-0.1,2.6-0.2
		C259.2,150.5,260.8,150.6,262.6,150.7 M146.5,225.8v70.9h-21.8h-21.8v-70.9v-70.9h21.8h21.8V225.8"/>
</g>
</svg>
